<?xml version="1.0" encoding="UTF-8" standalone="no"?>
<!-- Created with Inkscape (http://www.inkscape.org/) -->

<svg
   xmlns:dc="http://purl.org/dc/elements/1.1/"
   xmlns:cc="http://creativecommons.org/ns#"
   xmlns:rdf="http://www.w3.org/1999/02/22-rdf-syntax-ns#"
   xmlns:svg="http://www.w3.org/2000/svg"
   xmlns="http://www.w3.org/2000/svg"
   xmlns:sodipodi="http://sodipodi.sourceforge.net/DTD/sodipodi-0.dtd"
   xmlns:inkscape="http://www.inkscape.org/namespaces/inkscape"
   width="200"
   height="200"
   id="svg2"
   version="1.1"
   inkscape:version="0.48.5 r10040"
   sodipodi:docname="settings.svg"
   inkscape:export-filename="C:\Users\Administrator\Google Drive\11grade\Habivator\img\settings.png"
   inkscape:export-xdpi="90"
   inkscape:export-ydpi="90">
  <defs
     id="defs4" />
  <sodipodi:namedview
     id="base"
     pagecolor="#ffffff"
     bordercolor="#666666"
     borderopacity="1.0"
     inkscape:pageopacity="0.0"
     inkscape:pageshadow="2"
     inkscape:zoom="0.98994949"
     inkscape:cx="157.22532"
     inkscape:cy="39.157142"
     inkscape:document-units="px"
     inkscape:current-layer="layer1"
     showgrid="true"
     inkscape:snap-grids="true"
     inkscape:window-width="1366"
     inkscape:window-height="706"
     inkscape:window-x="-8"
     inkscape:window-y="-8"
     inkscape:window-maximized="1">
    <inkscape:grid
       type="xygrid"
       id="grid2985"
       empspacing="5"
       visible="true"
       enabled="true"
       snapvisiblegridlinesonly="true" />
  </sodipodi:namedview>
  <metadata
     id="metadata7">
    <rdf:RDF>
      <cc:Work
         rdf:about="">
        <dc:format>image/svg+xml</dc:format>
        <dc:type
           rdf:resource="http://purl.org/dc/dcmitype/StillImage" />
        <dc:title></dc:title>
      </cc:Work>
    </rdf:RDF>
  </metadata>
  <g
     inkscape:label="Layer 1"
     inkscape:groupmode="layer"
     id="layer1"
     transform="translate(0,-852.36218)">
    <rect
       style="fill:#909090;stroke:none;fill-opacity:1"
       id="rect3960"
       width="200"
       height="200"
       x="0"
       y="0"
       transform="translate(0,852.36218)" />
    <rect
       style="fill:#484848;fill-opacity:1;stroke:none;stroke-width:12;stroke-linecap:round;stroke-linejoin:miter;stroke-miterlimit:4;stroke-opacity:1;stroke-dasharray:none"
       id="rect3958"
       width="200"
       height="25"
       x="0"
       y="175"
       transform="translate(0,852.36218)" />
    <rect
       style="fill:none;fill-opacity:1;stroke:#000000;stroke-width:12;stroke-linecap:round;stroke-linejoin:miter;stroke-miterlimit:4;stroke-opacity:1;stroke-dasharray:none"
       id="rect2987"
       width="200"
       height="200"
       x="0"
       y="0"
       transform="translate(0,852.36218)" />
    <path
       sodipodi:type="arc"
       style="fill:#000000;fill-opacity:1;stroke:none"
       id="path3968"
       sodipodi:cx="110"
       sodipodi:cy="90"
       sodipodi:rx="70"
       sodipodi:ry="70"
       d="m 180,90 c 0,38.65993 -31.34007,70 -70,70 -38.659932,0 -70,-31.34007 -70,-70 0,-38.659932 31.340068,-70 70,-70 38.65993,0 70,31.340068 70,70 z"
       transform="matrix(0.71428572,0,0,0.71428572,21.428571,878.07646)" />
    <rect
       style="fill:#000000;fill-opacity:1;stroke:none"
       id="rect3970"
       width="20"
       height="130"
       x="90"
       y="877.36218" />
    <rect
       style="fill:#000000;fill-opacity:1;stroke:none"
       id="rect3970-1"
       width="20"
       height="130"
       x="932.36218"
       y="-165"
       transform="matrix(0,1,-1,0,0,0)" />
    <rect
       style="fill:#000000;fill-opacity:1;stroke:none"
       id="rect3970-1-8"
       width="20"
       height="130"
       x="585.64001"
       y="-802.06134"
       transform="matrix(-0.70710678,0.70710678,-0.70710678,-0.70710678,0,0)" />
    <rect
       style="fill:#000000;fill-opacity:1;stroke:none"
       id="rect3970-1-82"
       width="20"
       height="130"
       x="727.06134"
       y="530.64001"
       transform="matrix(0.70710678,0.70710678,-0.70710678,0.70710678,0,0)" />
    <path
       sodipodi:type="arc"
       style="fill:#909090;fill-opacity:1;stroke:none"
       id="path3968-4"
       sodipodi:cx="110"
       sodipodi:cy="90"
       sodipodi:rx="70"
       sodipodi:ry="70"
       d="m 180,90 c 0,38.65993 -31.34007,70 -70,70 -38.659932,0 -70,-31.34007 -70,-70 0,-38.659932 31.340068,-70 70,-70 38.65993,0 70,31.340068 70,70 z"
       transform="matrix(0.42857143,0,0,0.42857143,52.857143,903.79076)" />
  </g>
</svg>
